<svg xmlns="http://www.w3.org/2000/svg" width="340.822" height="42.318" fill="none">
    <path d="M38.08 30.034a50.694 50.694 0 0 0 3.247 3.24c.141.162.276.337.432.492 1.923 1.924 3.86 3.827 5.777 5.758.911.924 1.897 1.782 2.7 2.794H36.265c-.142-.169-.277-.344-.432-.5-2.29-2.276-4.583-4.56-6.878-6.85C21.139 27.174 13.32 19.38 5.5 11.588c-1.822-1.816-3.59-3.68-5.487-5.4V.066h7.323a1.351 1.351 0 0 1 1.04.432c6.447 6.425 12.9 12.851 19.357 19.277.126.124.26.24.398.35 1.897 1.91 3.787 3.834 5.697 5.738 1.404 1.404 2.835 2.78 4.252 4.17z" fill="#ffffff"/>
    <path opacity=".7" d="M50.257 42.318c-.824-1.013-1.81-1.87-2.7-2.795-1.917-1.93-3.854-3.833-5.778-5.757-.155-.155-.29-.33-.432-.493V2.86a2.025 2.025 0 0 1 .54-1.41A3.55 3.55 0 0 1 45.221.032c1.789.135 3.598.054 5.4 0 .554 0 .675.148.675.675v40.821c0 .263 0 .526.04.79z" fill="#ffffff"/>
    <path d="M0 24.775V10.824c.21.047.317.23.452.37l4.313 4.26 23.84 23.772c1.012 1.012 2.085 1.977 2.996 3.091H17.603c0-.202-.196-.29-.317-.412a7495.363 7495.363 0 0 0-14.7-14.646A31.924 31.924 0 0 0 0 24.775zM12.939 42.317H.446c-.372 0-.446-.074-.446-.439V29.425c.277 0 .392.263.56.425 3.992 3.965 7.976 7.94 11.954 11.927.162.142.411.256.425.54z" fill="#ffffff"/>
    <path opacity=".7" d="M38.08 30.033c-1.417-1.39-2.848-2.767-4.251-4.17-1.91-1.904-3.8-3.828-5.697-5.738v-4.448a1.034 1.034 0 0 1 .297-.83L37.723 5.6c.074-.074.169-.135.236-.196.21.074.149.23.149.344v23.955c-.002.11-.011.22-.027.33z" fill="#ffffff"/>
    <g style="font-size:31.3333px;line-height:1.25;font-family:'Inter V';-inkscape-font-specification:'Inter V';fill:#ffffff;fill-opacity:1" aria-label="Materialize Cloud">
        <path style="font-style:normal;font-variant:normal;font-weight:600;font-stretch:normal;font-family:'Inter V';-inkscape-font-specification:'Inter V Semi-Bold';letter-spacing:.01px;fill:#ffffff;fill-opacity:1" d="M80.91 10.759h5.052l6.765 16.512h.267l6.765-16.512h5.052v22.788h-3.962V17.89h-.21L94.34 33.48h-2.96l-6.297-15.622h-.212v15.689h-3.96zM114.056 33.892q-1.625 0-2.926-.58-1.291-.589-2.048-1.735-.745-1.146-.745-2.826 0-1.447.534-2.392.534-.946 1.457-1.514.924-.567 2.081-.856 1.169-.3 2.415-.434 1.502-.156 2.437-.279.934-.133 1.357-.4.434-.278.434-.857v-.067q0-1.257-.746-1.947-.745-.69-2.147-.69-1.48 0-2.348.646-.857.645-1.157 1.524l-3.76-.534q.444-1.558 1.468-2.604 1.024-1.057 2.503-1.58 1.48-.534 3.272-.534 1.235 0 2.459.29 1.224.289 2.236.956 1.013.657 1.625 1.792.623 1.135.623 2.837v11.439h-3.872v-2.348h-.134q-.367.712-1.035 1.335-.656.612-1.658.99-.99.368-2.325.368zm1.046-2.96q1.213 0 2.103-.479.89-.49 1.368-1.29.49-.802.49-1.747v-2.014q-.19.155-.645.289-.445.134-1.002.234-.556.1-1.101.178-.545.078-.946.133-.901.123-1.613.4-.713.279-1.124.78-.412.49-.412 1.268 0 1.113.812 1.68.813.568 2.07.568zM135.674 16.456v3.115h-9.825v-3.115Zm-7.399-4.095h4.028v16.045q0 .812.245 1.246.256.423.667.579.412.156.913.156.378 0 .69-.056.322-.056.49-.1l.678 3.149q-.323.11-.924.244-.59.134-1.446.156-1.513.045-2.726-.456-1.213-.512-1.925-1.58-.701-1.068-.69-2.67zM146.466 33.88q-2.57 0-4.44-1.068-1.857-1.08-2.859-3.049-1.001-1.98-1.001-4.662 0-2.637 1.001-4.629 1.013-2.002 2.826-3.115 1.814-1.124 4.262-1.124 1.58 0 2.982.512 1.413.5 2.492 1.558 1.09 1.057 1.714 2.692.623 1.625.623 3.873v1.235h-14.009v-2.715h10.148q-.011-1.157-.5-2.059-.49-.912-1.37-1.435-.867-.523-2.024-.523-1.236 0-2.17.6-.935.59-1.458 1.559-.512.956-.523 2.103v2.37q0 1.49.545 2.559.546 1.057 1.525 1.624.979.557 2.292.557.879 0 1.591-.245.712-.256 1.235-.746.523-.49.79-1.213l3.761.423q-.356 1.491-1.357 2.604-.99 1.102-2.537 1.714-1.547.6-3.539.6zM157.453 33.547V16.456h3.906v2.848h.178q.467-1.48 1.602-2.28 1.146-.813 2.615-.813.333 0 .745.033.423.023.701.078v3.705q-.256-.089-.812-.155-.545-.078-1.057-.078-1.102 0-1.98.478-.869.468-1.37 1.302-.5.835-.5 1.925v10.048zM169.886 33.547V16.456h4.028v17.09zm2.025-19.517q-.957 0-1.647-.634-.69-.646-.69-1.547 0-.912.69-1.546.69-.646 1.647-.646.968 0 1.647.646.69.634.69 1.546 0 .901-.69 1.547-.679.634-1.647.634zM182.954 33.892q-1.625 0-2.927-.58-1.29-.589-2.047-1.735-.746-1.146-.746-2.826 0-1.447.534-2.392.535-.946 1.458-1.514.924-.567 2.08-.856 1.17-.3 2.415-.434 1.502-.156 2.437-.279.935-.133 1.358-.4.434-.278.434-.857v-.067q0-1.257-.746-1.947-.745-.69-2.147-.69-1.48 0-2.348.646-.857.645-1.157 1.524l-3.761-.534q.445-1.558 1.468-2.604 1.024-1.057 2.504-1.58 1.48-.534 3.271-.534 1.235 0 2.46.29 1.223.289 2.236.956 1.012.657 1.624 1.792.623 1.135.623 2.837v11.439h-3.872v-2.348h-.133q-.367.712-1.035 1.335-.657.612-1.658.99-.99.368-2.325.368zm1.045-2.96q1.213 0 2.103-.479.89-.49 1.37-1.29.489-.802.489-1.747v-2.014q-.19.155-.646.289-.445.134-1.001.234-.556.1-1.102.178-.545.078-.945.133-.902.123-1.614.4-.712.279-1.124.78-.411.49-.411 1.268 0 1.113.812 1.68.812.568 2.07.568zM200.066 10.759v22.788h-4.028V10.759ZM204.187 33.547V16.456h4.028v17.09zm2.025-19.517q-.957 0-1.647-.634-.69-.646-.69-1.547 0-.912.69-1.546.69-.646 1.647-.646.968 0 1.647.646.69.634.69 1.546 0 .901-.69 1.547-.679.634-1.647.634zM212.114 33.547v-2.56l8.812-11.049v-.144h-8.523v-3.338h13.452v2.748l-8.39 10.86v.145h8.68v3.338zM237.048 33.88q-2.57 0-4.44-1.068-1.858-1.08-2.86-3.049-1-1.98-1-4.662 0-2.637 1-4.629 1.013-2.002 2.827-3.115 1.814-1.124 4.262-1.124 1.58 0 2.982.512 1.413.5 2.492 1.558 1.09 1.057 1.714 2.692.623 1.625.623 3.873v1.235h-14.01v-2.715h10.149q-.012-1.157-.501-2.059-.49-.912-1.369-1.435-.868-.523-2.025-.523-1.235 0-2.17.6-.934.59-1.457 1.559-.512.956-.523 2.103v2.37q0 1.49.545 2.559.545 1.057 1.524 1.624.98.557 2.293.557.879 0 1.59-.245.713-.256 1.236-.746t.79-1.213l3.76.423q-.355 1.491-1.357 2.604-.99 1.102-2.537 1.714-1.546.6-3.538.6zM275.5 18.447h-4.161q-.178-1.023-.657-1.813-.478-.801-1.19-1.358-.712-.556-1.625-.834-.901-.29-1.947-.29-1.858 0-3.294.935-1.435.924-2.247 2.715-.813 1.78-.813 4.35 0 2.615.813 4.407.823 1.78 2.247 2.693 1.436.9 3.283.9 1.023 0 1.914-.266.9-.278 1.613-.812.723-.535 1.213-1.313.5-.78.69-1.78l4.161.022q-.233 1.624-1.012 3.048-.768 1.425-2.014 2.515-1.247 1.08-2.916 1.691-1.669.601-3.705.601-3.004 0-5.363-1.39-2.359-1.392-3.716-4.018-1.358-2.625-1.358-6.297 0-3.683 1.369-6.298 1.368-2.626 3.727-4.017 2.36-1.39 5.341-1.39 1.903 0 3.539.533 1.635.534 2.915 1.57 1.28 1.023 2.103 2.514.834 1.48 1.09 3.382zM283.171 10.759v22.788h-4.028V10.759ZM294.747 33.88q-2.503 0-4.339-1.101-1.836-1.102-2.849-3.082-1-1.98-1-4.63 0-2.647 1-4.639 1.013-1.992 2.849-3.093 1.836-1.102 4.34-1.102 2.503 0 4.339 1.102 1.836 1.101 2.837 3.093 1.013 1.992 1.013 4.64 0 2.648-1.013 4.629-1.001 1.98-2.837 3.082-1.836 1.101-4.34 1.101zm.023-3.226q1.357 0 2.27-.746.912-.757 1.357-2.025.456-1.268.456-2.826 0-1.57-.456-2.838-.445-1.28-1.357-2.036-.913-.756-2.27-.756-1.391 0-2.315.756-.912.757-1.368 2.036-.445 1.269-.445 2.838 0 1.558.445 2.826.456 1.268 1.368 2.025.924.746 2.315.746zM317.228 26.359v-9.903h4.028v17.09h-3.905V30.51h-.178q-.579 1.435-1.903 2.348-1.313.912-3.238.912-1.68 0-2.97-.745-1.28-.757-2.004-2.192-.723-1.447-.723-3.494V16.456h4.028v10.259q0 1.624.89 2.581.89.957 2.337.957.89 0 1.724-.434.835-.434 1.369-1.29.545-.869.545-2.17zM331.72 33.847q-2.014 0-3.605-1.035-1.591-1.035-2.515-3.004-.923-1.97-.923-4.785 0-2.848.934-4.806.946-1.97 2.548-2.971 1.602-1.013 3.572-1.013 1.502 0 2.47.512.968.5 1.536 1.213.567.7.879 1.324h.167v-8.523h4.039v22.788h-3.962v-2.693h-.244q-.312.623-.902 1.324-.59.69-1.557 1.18-.968.489-2.437.489zm1.124-3.305q1.28 0 2.18-.69.902-.7 1.37-1.947.466-1.246.466-2.904t-.467-2.882q-.456-1.224-1.357-1.902-.89-.68-2.192-.68-1.347 0-2.248.702-.901.7-1.357 1.936-.457 1.235-.457 2.826 0 1.602.457 2.86.467 1.246 1.368 1.97.913.711 2.237.711z"/>
    </g>
</svg>
